<svg id="person_add_black_24dp" xmlns="http://www.w3.org/2000/svg" width="26.005" height="26.005" viewBox="0 0 26.005 26.005">
  <path id="Path_20" data-name="Path 20" d="M0,0H26V26H0Z" fill="none"/>
  <path id="Path_21" data-name="Path 21" d="M16.268,12.977A4.426,4.426,0,0,0,20.63,8.489a4.364,4.364,0,1,0-8.724,0A4.426,4.426,0,0,0,16.268,12.977ZM6.453,10.733V7.367H4.272v3.367H1v2.244H4.272v3.367H6.453V12.977H9.724V10.733Zm9.815,4.489c-2.912,0-8.724,1.5-8.724,4.489v2.244H24.992V19.711C24.992,16.726,19.18,15.222,16.268,15.222Z" transform="translate(0.006 0.025)" fill="#074a82"/>
</svg>
