<svg xmlns="http://www.w3.org/2000/svg" width="289.495" height="98.917" viewBox="0 0 289.495 98.917">
  <g id="Group_24" data-name="Group 24" transform="translate(-196.253 -217.197)">
    <g id="Group_1" data-name="Group 1" transform="translate(196.253 219.12)">
      <path id="Path_1" data-name="Path 1" d="M202.158,250.932s5.2,4.748,10.976,4.748c2.312,0,4.814-.9,4.814-3.659,0-5.455-20.667-5.262-20.667-19.383,0-8.474,7.124-14.058,16.239-14.058,9.884,0,14.762,5.2,14.762,5.2l-4.75,9.179s-4.621-4.045-10.141-4.045c-2.31,0-4.878,1.027-4.878,3.595,0,5.776,20.668,4.75,20.668,19.256,0,7.638-5.841,14.248-16.175,14.248a23.692,23.692,0,0,1-16.753-6.546Z" transform="translate(-196.253 -218.582)" fill="#a32c65"/>
      <path id="Path_2" data-name="Path 2" d="M250.079,255.4H235.764l-2.759,9.627H221.451l15.6-45.892h11.81l15.6,45.892H252.9Zm-7.189-25.8s-1.027,5.005-1.862,7.893l-2.631,8.922h9.05l-2.567-8.922c-.834-2.888-1.862-7.893-1.862-7.893Z" transform="translate(-186.465 -218.366)" fill="#a32c65"/>
      <path id="Path_3" data-name="Path 3" d="M256.127,219.137h11.232V255.4H286.1v9.627H256.127Z" transform="translate(-172.996 -218.366)" fill="#a32c65"/>
      <path id="Path_4" data-name="Path 4" d="M282.157,219.137h28.756v9.627H293.391v8.344h13.991v9.629H293.391V255.4h18.42v9.627H282.157Z" transform="translate(-162.885 -218.366)" fill="#a32c65"/>
      <path id="Path_5" data-name="Path 5" d="M312.8,250.932s5.2,4.748,10.974,4.748c2.312,0,4.815-.9,4.815-3.659,0-5.455-20.667-5.262-20.667-19.383,0-8.474,7.124-14.058,16.238-14.058,9.886,0,14.762,5.2,14.762,5.2l-4.748,9.179s-4.622-4.045-10.141-4.045c-2.31,0-4.878,1.027-4.878,3.595,0,5.776,20.667,4.75,20.667,19.256,0,7.638-5.841,14.248-16.174,14.248a23.692,23.692,0,0,1-16.753-6.546Z" transform="translate(-153.277 -218.582)" fill="#a32c65"/>
      <path id="Path_6" data-name="Path 6" d="M199.893,259.846h13.328c6.163,0,10.549,3.721,10.549,9.829a9.016,9.016,0,0,1-4.941,8.5v.111c4,1.111,6.552,4.941,6.552,9.662,0,6.941-5.164,10.938-11.716,10.938H199.893Zm13.328,16.936c3.942,0,6.608-2.777,6.608-6.83,0-4-2.5-6.663-6.663-6.663h-9.44v13.493Zm.5,18.658c4.719,0,7.663-2.943,7.663-7.607a7.316,7.316,0,0,0-7.718-7.718h-9.94V295.44Z" transform="translate(-194.839 -202.554)" fill="#004a82"/>
      <path id="Path_7" data-name="Path 7" d="M224.573,259.846h3.888v25.376c0,6.719,4.331,10.773,11.049,10.773s11.106-4.054,11.106-10.884V259.846h3.831v25.432c0,8.662-6.052,14.27-14.881,14.27-8.885,0-14.992-5.608-14.992-14.27Z" transform="translate(-185.253 -202.554)" fill="#004a82"/>
      <path id="Path_8" data-name="Path 8" d="M253.893,259.846h12.6c11.717,0,19.6,7.163,19.6,19.491,0,12.438-7.885,19.545-19.6,19.545h-12.6Zm12.215,35.594c9.607,0,15.992-5.665,15.992-16.1,0-10.384-6.441-16.047-15.992-16.047h-8.385V295.44Z" transform="translate(-173.864 -202.554)" fill="#004a82"/>
      <path id="Path_9" data-name="Path 9" d="M283.492,259.846H296.1c11.716,0,19.6,7.163,19.6,19.491,0,12.438-7.885,19.545-19.6,19.545H283.492Zm12.217,35.594c9.607,0,15.992-5.665,15.992-16.1,0-10.384-6.441-16.047-15.992-16.047h-8.385V295.44Z" transform="translate(-162.367 -202.554)" fill="#004a82"/>
      <path id="Path_10" data-name="Path 10" d="M322.053,282.112l-13.16-22.266h4.386l8.274,14.159c1.166,2,2.387,4.665,2.387,4.665h.112s1.165-2.61,2.387-4.665l8.274-14.159h4.332l-13.1,22.266v16.77h-3.888Z" transform="translate(-152.5 -202.554)" fill="#004a82"/>
    </g>
    <path id="Path_11" data-name="Path 11" d="M342.873,314.369a2.778,2.778,0,0,1-2.559-3.856l10.137-24.05A43.322,43.322,0,0,1,342.276,261a43.8,43.8,0,1,1,43.8,43.8,43.367,43.367,0,0,1-17.644-3.7l-24.25,12.947A2.78,2.78,0,0,1,342.873,314.369Zm43.2-91.618A38.289,38.289,0,0,0,347.83,261a37.865,37.865,0,0,0,7.992,23.383,2.778,2.778,0,0,1,.364,2.778l-7.713,18.3,18.559-9.908a2.776,2.776,0,0,1,2.512-.054,37.871,37.871,0,0,0,16.532,3.75,38.246,38.246,0,0,0,0-76.491Z" transform="translate(55.873 0)" fill="#004a82"/>
    <path id="Path_12" data-name="Path 12" d="M400.882,269.4l-4.712-25.867a2.778,2.778,0,0,0-2.732-2.278h-5.89v-6.238a2.778,2.778,0,0,0-2.777-2.777H373.8a2.778,2.778,0,0,0-2.777,2.777v6.238h-5.888a2.778,2.778,0,0,0-2.732,2.278L357.685,269.4a2.776,2.776,0,0,0,2.732,3.274h37.732a2.774,2.774,0,0,0,2.732-3.274ZM376.573,237.79h5.42v3.461h-5.42Zm-12.828,29.326,3.7-20.311h3.572v5.452a2.777,2.777,0,1,0,5.554,0V246.8h5.42v5.452a2.777,2.777,0,1,0,5.554,0V246.8h3.572l3.7,20.311Z" transform="translate(62.688 5.842)" fill="#a32c65"/>
  </g>
</svg>
